# xmcd CD database file
#
# Track frame offsets:
#	150
#	15926
#	28435
#	38297
#	50455
#	57907
#	72607
#	78880
#	90517
#	102698
#	110601
#	119683
#	133231
#	138702
#	149964
#	156506
#	168791
#	181997
#	193901
#	207150
#	211618
#	217732
#	233278
#	245697
#	260703
#	272085
#	279831
#	286562
#	289869
#	300012
#	311340
#	316862
#
# Disc length: 4319 seconds
#
# Revision: 2
# Processed by: cddbd v1.5.2PL0 Copyright (c) Steve Scherf et al.
# Submitted via: CDex 1.51
#
DISCID=d310dd20
DTITLE=Allain-Dupré - Hotteterre J.-M. - 1er Livre de pièces pour la flûte traversière
DYEAR=1995
DGENRE=Baroque
TTITLE0=Suite n° 1 en ré majeur - Prélude
TTITLE1=Suite n° 1 en ré majeur - Allemande La Royalle
TTITLE2=Suite n° 1 en ré majeur - Rondeau Le Duc d'Orleans
TTITLE3=Suite n° 1 en ré majeur - Sarabande La d'Armagnac
TTITLE4=Suite n° 1 en ré majeur - Gavotte La Meudon
TTITLE5=Suite n° 1 en ré majeur - Menuet Le Comte de Brione
TTITLE6=Suite n° 1 en ré majeur - Gigue La Folichon
TTITLE7=Pièces à deux flûtes traversières - Les Délices ou le Fargis
TTITLE8=Pièces à deux flûtes traversières - Rondeau Le Champêtre
TTITLE9=Suite n° 2 en sol majeur - Prélude
TTITLE10=Suite n° 2 en sol majeur - Allemande L'Atalante
TTITLE11=Suite n° 2 en sol majeur - Sarabande La Fidelle
TTITLE12=Suite n° 2 en sol majeur - Petit Air tendre
TTITLE13=Suite n° 2 en sol majeur - Gavotte en Rondeau La Maillebois
TTITLE14=Suite n° 2 en sol majeur - Rondeau Le Baron
TTITLE15=Suite n° 3 en sol majeur - Allemande La Cascade de Saint-Cloud
TTITLE16=Suite n° 3 en sol majeur - Sarabande La Guimon
TTITLE17=Suite n° 3 en sol majeur - Double L'indifferente
TTITLE18=Suite n° 3 en sol majeur - Rondeau Le Plaintif
TTITLE19=Suite n° 3 en sol majeur - Menuet Le Mignon
TTITLE20=Suite n° 3 en sol majeur - Gigue L'Italienne
TTITLE21=Suite n° 3 en sol majeur - Echos pour la Flute traversiere seule
TTITLE22=Suite n° 4 en mi mineur - Prélude
TTITLE23=Suite n° 4 en mi mineur - Allemande La Fontainebleau
TTITLE24=Suite n° 4 en mi mineur - Sarabande Le Départ
TTITLE25=Suite n° 4 en mi mineur - Air Le Fleuri
TTITLE26=Suite n° 4 en mi mineur - Gavotte La Matilde
TTITLE27=Suite n° 4 en mi mineur - Branie de Village L'Auteuil
TTITLE28=Suite n° 4 en mi mineur - Menuet La Beaulieu
TTITLE29=Suite n° 4 en mi mineur - Allemande La Chauvet
TTITLE30=Suite n° 4 en mi mineur - Rondeau Le Lutin
TTITLE31=Suite n° 4 en mi mineur - Gigue la Perousine
EXTD=YEAR: 1995
EXTT0=
EXTT1=
EXTT2=
EXTT3=
EXTT4=
EXTT5=
EXTT6=
EXTT7=
EXTT8=
EXTT9=
EXTT10=
EXTT11=
EXTT12=
EXTT13=
EXTT14=
EXTT15=
EXTT16=
EXTT17=
EXTT18=
EXTT19=
EXTT20=
EXTT21=
EXTT22=
EXTT23=
EXTT24=
EXTT25=
EXTT26=
EXTT27=
EXTT28=
EXTT29=
EXTT30=
EXTT31=
PLAYORDER=
